<?xml version="1.0" ?><svg height="57px" version="1.1" viewBox="0 0 60 57" width="60px" xmlns="http://www.w3.org/2000/svg" xmlns:xlink="http://www.w3.org/1999/xlink"><title/><desc/><defs/><g fill="none" fill-rule="evenodd" id="Page-1" stroke="none" stroke-width="1"><g fill-rule="nonzero" id="043---Bottle"><g id="Icons"><path d="M56.17,54.06 C55.542255,54.1965139 54.9725698,54.525044 54.54,55 C53.9734034,55.6362813 53.1619892,56.0002266 52.31,56.0002266 C51.4580108,56.0002266 50.6465966,55.6362813 50.08,55 C49.5134034,54.3637187 48.7019892,53.9997734 47.85,53.9997734 C46.9980108,53.9997734 46.1865966,54.3637187 45.62,55 C45.050908,55.6355811 44.2381289,55.9988066 43.385,55.9988066 C42.5318711,55.9988066 41.719092,55.6355811 41.15,55 C40.5783296,54.3707066 39.7701462,54.0082924 38.92,54 C38.070725,54.0122471 37.2640439,54.3739875 36.69,55 C36.1183296,55.6292934 35.3101462,55.9917076 34.46,56 C33.610725,55.9877529 32.8040439,55.6260125 32.23,55 C31.6634034,54.3637187 30.8519892,53.9997734 30,53.9997734 C29.1480108,53.9997734 28.3365966,54.3637187 27.77,55 C27.2624074,55.5495749 26.5735621,55.8975483 25.83,55.98 L10.47,33.89 C9.28667673,32.1913801 9.06361895,30.0023894 9.88,28.1 L10.97,25.54 C11.7863718,23.6409833 11.5632254,21.4549056 10.38,19.76 L4.86,11.82 L13.06,6.1 L18.59,14.05 C19.7741561,15.7440249 21.7455938,16.7108602 23.81,16.61 L26.59,16.48 C28.6573906,16.3761481 30.631629,17.348139 31.81,19.05 L56.17,54.06 Z" fill="#FFFFFF" id="Shape"/><rect fill="#735EFF" height="6" id="Rectangle-path" rx="1" transform="translate(7.246459, 6.496374) rotate(-34.827000) translate(-7.246459, -6.496374) " width="12" x="1.24645879" y="3.49637363"/><path d="M40.74,54.64 C40.2237964,54.2258501 39.5818053,54.000095 38.92,54 C38.070725,54.0122471 37.2640439,54.3739875 36.69,55 C36.1183296,55.6292934 35.3101462,55.9917076 34.46,56 C33.8625048,55.9965345 33.2801468,55.8117143 32.79,55.47 L15.78,31.02 C16.72,32.38 20.06,31.69 23.24,29.48 L40.74,54.64 Z" fill="#FFACAD" id="Shape"/><path d="M48.98,54.23 C48.6220236,54.0800934 48.2380919,54.001948 47.85,54 C46.9998538,54.0082924 46.1916704,54.3707066 45.62,55 C45.050908,55.6355811 44.2381289,55.9988066 43.385,55.9988066 C42.5318711,55.9988066 41.719092,55.6355811 41.15,55 C41.0281014,54.8641572 40.8904665,54.7433071 40.74,54.64 L23.24,29.48 C20.06,31.69 16.72,32.38 15.78,31.02 C14.84,29.66 16.64,26.76 19.81,24.56 C22.98,22.36 26.32,21.66 27.27,23.02 L48.98,54.23 Z" fill="#F96A59" id="Shape"/></g><g fill="#000000" id="Layer_10"><path d="M56.438,53.57 L32.221,18.77 C30.9461719,16.9243173 28.8061914,15.8707884 26.566,15.986 L23.786,16.116 C21.8917346,16.2113303 20.0823474,15.3225152 19,13.765 L13.7,6.149 C13.8329885,5.97162368 13.9242534,5.76653394 13.967,5.549 C14.0382594,5.15760993 13.9500432,4.75397602 13.722,4.428 L11.44,1.143 C10.9663553,0.463508166 10.0316104,0.296525487 9.352,0.77 L1.145,6.479 C0.818212567,6.70599331 0.595001302,7.05352325 0.524484934,7.44511415 C0.453968565,7.83670504 0.541925361,8.24026907 0.769,8.567 L3.053,11.852 C3.28048516,12.1784123 3.62833029,12.4010763 4.02,12.471 C4.1084461,12.4869224 4.19813213,12.494954 4.288,12.495 C4.42010779,12.4926423 4.55129257,12.47246 4.678,12.435 L9.969,20.045 C11.0595565,21.5970708 11.2644757,23.6045967 10.51,25.345 L9.421,27.9 C8.52817968,29.9601123 8.7701803,32.3361872 10.06,34.174 L24.777,55.342 C24.3573927,55.213391 23.9783623,54.9780476 23.677,54.659 C23.0030058,53.9437545 22.0637738,53.5382774 21.081,53.5382774 C20.0982262,53.5382774 19.1589942,53.9437545 18.485,54.659 C18.0123637,55.1936101 17.3330776,55.4997548 16.6195,55.4997548 C15.9059224,55.4997548 15.2266363,55.1936101 14.754,54.659 C14.0796808,53.943969 13.1403406,53.5386626 12.1575,53.5386626 C11.1746594,53.5386626 10.2353192,53.943969 9.561,54.659 C9.0792993,55.1773392 8.4036094,55.4718263 7.696,55.4718263 C6.9883906,55.4718263 6.3127007,55.1773392 5.831,54.659 C5.16527781,53.9250622 4.22187346,53.5045216 3.231,53.5 C2.24012654,53.5045216 1.29672219,53.9250622 0.631,54.659 C0.499578908,54.7876935 0.449429768,54.9781527 0.500431717,55.1548794 C0.551433667,55.3316061 0.695350024,55.4660595 0.875132298,55.5049421 C1.05491457,55.5438248 1.2415284,55.4808573 1.361,55.341 C1.838985,54.8110656 2.51737232,54.5059727 3.231,54.5 C3.94298965,54.5068775 4.61948468,54.8119351 5.096,55.341 C5.76999418,56.0562455 6.70922623,56.4617226 7.692,56.4617226 C8.67477377,56.4617226 9.61400582,56.0562455 10.288,55.341 C10.7698786,54.8226089 11.4457315,54.5281046 12.1535,54.5281046 C12.8612685,54.5281046 13.5371214,54.8226089 14.019,55.341 C14.6847222,56.0749378 15.6281265,56.4954784 16.619,56.5 C17.6098735,56.4954784 18.5532778,56.0749378 19.219,55.341 C19.7010318,54.8228827 20.3768276,54.528573 21.0845,54.528573 C21.7921724,54.528573 22.4679682,54.8228827 22.95,55.341 C23.6595243,56.0947577 24.6641422,56.4990908 25.698,56.447 C25.8158803,56.5018136 25.9542659,56.4880134 26.059,56.411 C26.8555943,56.3040824 27.5911197,55.9262562 28.142,55.341 C28.6238786,54.8226089 29.2997315,54.5281046 30.0075,54.5281046 C30.7152685,54.5281046 31.3911214,54.8226089 31.873,55.341 C32.0824694,55.5594249 32.3174969,55.7518117 32.573,55.914 C33.1351882,56.2912579 33.7959766,56.4947112 34.473,56.499 C35.4637673,56.4939854 36.4069821,56.0735293 37.073,55.34 C37.5550318,54.8218827 38.2308276,54.527573 38.9385,54.527573 C39.6461724,54.527573 40.3219682,54.8218827 40.804,55.34 C41.4778178,56.0551918 42.4168863,56.4606502 43.3995,56.4606502 C44.3821137,56.4606502 45.3211822,56.0551918 45.995,55.34 C46.4768786,54.8216089 47.1527315,54.5271046 47.8605,54.5271046 C48.5682685,54.5271046 49.2441214,54.8216089 49.726,55.34 C50.3920179,56.0735293 51.3352327,56.4939854 52.326,56.499 C53.3168204,56.4942317 54.2601299,56.0737334 54.926,55.34 C55.4080318,54.8218827 56.0838276,54.527573 56.7915,54.527573 C57.4991724,54.527573 58.1749682,54.8218827 58.657,55.34 C58.7764716,55.4798573 58.9630854,55.5428248 59.1428677,55.5039421 C59.32265,55.4650595 59.4665663,55.3306061 59.5175683,55.1538794 C59.5685702,54.9771527 59.5184211,54.7866935 59.387,54.658 C58.6285283,53.853671 57.5371203,53.4510084 56.438,53.57 Z M3.874,11.28 L1.589,8 C1.51210158,7.89071727 1.48214666,7.75520054 1.50581903,7.62368742 C1.52949139,7.49217431 1.60482111,7.37560881 1.715,7.3 L9.923,1.59 C10.0320372,1.51290389 10.1673839,1.48262877 10.2988767,1.50592178 C10.4303695,1.5292148 10.5470807,1.60414016 10.623,1.714 L12.9,5 C13.0515184,5.22114684 13.0016709,5.52243793 12.787,5.683 C12.781,5.683 12.775,5.683 12.77,5.69 L8.5,8.672 L4.57,11.405 C4.46113037,11.4807247 4.32663711,11.510097 4.19611015,11.4866547 C4.06558319,11.4632123 3.9497158,11.3888758 3.874,11.28 Z M36.327,54.659 C35.8499539,55.1879142 35.173231,55.492911 34.461,55.5 C33.9918162,55.4955469 33.533735,55.3567344 33.141,55.1 L17.206,32.2 C19.332769,32.1327782 21.3901816,31.4275787 23.111,30.176 L39.4,53.585 C38.2620333,53.4226932 37.1161267,53.8231825 36.327,54.659 Z M45.25,54.659 C44.7681214,55.1773911 44.0922685,55.4718954 43.3845,55.4718954 C42.6767315,55.4718954 42.0008786,55.1773911 41.519,54.659 C41.3966213,54.5360685 41.2652581,54.4224209 41.126,54.319 L23.651,29.2 C23.5752358,29.0899807 23.4585975,29.0148533 23.3270945,28.9913706 C23.1955916,28.9678879 23.06016,28.9980029 22.951,29.075 C20.778,30.586 18.385,31.437 16.993,31.175 C16.6681297,31.1633853 16.3678522,30.9989408 16.1831015,30.731466 C15.9983508,30.4639911 15.950856,30.1249442 16.055,29.817 C16.304,28.417 17.927,26.474 20.092,24.971 C23.232,22.781 26.178,22.338 26.855,23.306 L47.893,53.543 C46.8939586,53.5252077 45.9339504,53.9305687 45.25,54.659 Z M54.173,54.659 C53.7003637,55.1936101 53.0210776,55.4997548 52.3075,55.4997548 C51.5939224,55.4997548 50.9146363,55.1936101 50.442,54.659 C50.1297201,54.3287186 49.7560963,54.0624267 49.342,53.875 L27.68,22.733 C26.537,21.096 23.03,21.706 19.525,24.148 C17.119,25.818 15.372,27.974 15.074,29.64 C14.9443673,30.2117639 15.0507163,30.8116444 15.369,31.304 L30.935,53.678 C29.6668436,53.3255333 28.3077399,53.7030193 27.403,54.659 C27.0425366,55.0482515 26.5689125,55.3144464 26.049,55.42 L10.881,33.6 C9.79195195,32.0473667 9.58711533,30.0406494 10.34,28.3 L11.429,25.742 C12.3199584,23.6854386 12.0783499,21.3136612 10.791,19.479 L5.555,11.944 L9.155,9.433 L12.939,6.8 L18.18,14.335 C19.4510944,16.1827413 21.5938039,17.2338175 23.833,17.108 L26.617,16.978 C28.5107245,16.8881539 30.3175553,17.7785366 31.4,19.335 L55.39,53.814 C54.9288305,54.0058658 54.513922,54.2939494 54.173,54.659 Z" id="Shape"/></g></g></g></svg>