<?xml version="1.0" ?><!DOCTYPE svg  PUBLIC '-//W3C//DTD SVG 1.1//EN'  'http://www.w3.org/Graphics/SVG/1.1/DTD/svg11.dtd'><svg height="512px" style="enable-background:new 0 0 512 512;" version="1.1" viewBox="0 0 512 512" width="512px" xml:space="preserve" xmlns="http://www.w3.org/2000/svg" xmlns:xlink="http://www.w3.org/1999/xlink"><g id="_x36_24_x2C__diamond_x2C___love_x2C__heart_x2C__wedding"><g><polygon points="397.45,100.68 436.27,200.21 363.65,171.72 345.71,125.75   " style="fill:#FBB14F;"/><polygon points="354.68,130.25 400.352,108.12 397.45,100.68 345.71,125.75 363.65,171.72 372.168,175.062       " style="fill:#E29A44;"/><polygon points="397.45,100.68 345.71,125.75 283.37,101.3 262.48,47.74   " style="fill:#FFD55E;"/><polygon points="274.146,60.906 387.652,105.427 397.45,100.68 262.48,47.74 283.37,101.3 291.08,104.324       " style="fill:#E5B84A;"/><polygon points="262.48,47.74 283.37,101.3 238.971,122.81 166.34,94.32   " style="fill:#FBB14F;"/><polygon points="185.456,95.79 266.001,56.766 262.48,47.74 166.34,94.32 238.971,122.81 245.847,119.479       " style="fill:#E29A44;"/><polygon points="238.971,122.81 256.9,168.78 205.17,193.85 166.34,94.32   " style="fill:#FFD55E;"/><polygon points="233.97,127.811 251.054,171.613 256.9,168.78 238.971,122.81 166.34,94.32     169.547,102.541   " style="fill:#E5B84A;"/><polygon points="345.71,125.75 363.65,171.72 319.24,193.23 256.9,168.78 238.971,122.81 283.37,101.3       " style="fill:#FFC230;"/><polygon points="285.12,110.8 347.46,135.25 362.004,172.517 363.65,171.72 345.71,125.75 283.37,101.3     238.971,122.81 242.365,131.513   " style="fill:#EFAC26;"/><polygon points="319.24,193.23 340.13,246.79 205.17,193.85 256.9,168.78   " style="fill:#FBB14F;"/><polygon points="257.176,176.446 319.516,200.896 336.925,245.533 340.13,246.79 319.24,193.23     256.9,168.78 205.17,193.85 214.065,197.339   " style="fill:#E29A44;"/><polygon points="436.27,200.21 340.13,246.79 319.24,193.23 363.65,171.72   " style="fill:#FFD55E;"/><polygon points="328.101,197.289 372.511,175.779 435.604,200.532 436.27,200.21 363.65,171.72     319.24,193.23 340.13,246.79 346.25,243.825   " style="fill:#E5B84A;"/><path d="M437.22,237.73c10.011,0,18.13,8.11,18.13,18.12s-8.119,18.121-18.13,18.121    c-10,0-18.12-8.111-18.12-18.121S427.22,237.73,437.22,237.73z" style="fill:#FBB14F;"/><path d="M423.146,267.184c0-10.01,8.12-18.12,18.12-18.12c5.686,0,10.756,2.62,14.08,6.714    c-0.039-9.976-8.14-18.048-18.126-18.048c-10,0-18.12,8.11-18.12,18.12c0,4.326,1.521,8.291,4.05,11.406    C423.149,267.23,423.146,267.207,423.146,267.184z" style="fill:#E29A44;"/><polygon points="440.13,418.949 361.66,464.26 361.66,415.5 397.9,394.57   " style="fill:#FFD55E;"/><polygon points="362.077,423.25 398.317,402.32 433.627,422.705 440.13,418.949 397.9,394.57 361.66,415.5     361.66,464.26 362.077,464.02   " style="fill:#E5B84A;"/><polygon points="361.66,415.5 361.66,464.26 283.18,418.949 325.41,394.57   " style="fill:#FBB14F;"/><polygon points="325.41,394.57 318.985,398.279 355.16,419.166 355.16,460.508 361.66,464.26 361.66,415.5       " style="fill:#E29A44;"/><polygon points="397.9,352.721 397.9,394.57 361.66,415.5 325.41,394.57 325.41,352.721 361.66,331.789       " style="fill:#FFC230;"/><polygon points="326.41,361.459 362.66,340.529 397.9,360.883 397.9,352.721 361.66,331.789     325.41,352.721 325.41,394.57 326.41,395.146   " style="fill:#EFAC26;"/><polygon points="440.13,328.34 440.13,418.949 397.9,394.57 397.9,352.721   " style="fill:#FBB14F;"/><polygon points="397.9,352.721 397.9,360.965 433.297,340.529 433.297,415.006 440.13,418.949     440.13,328.34   " style="fill:#E29A44;"/><polygon points="440.13,328.34 397.9,352.721 361.66,331.789 361.66,283.029   " style="fill:#FFD55E;"/><polygon points="368.66,295.195 433.096,332.4 440.13,328.34 361.66,283.029 361.66,331.789     368.66,335.832   " style="fill:#E5B84A;"/><polygon points="361.66,283.029 361.66,331.789 325.41,352.721 283.18,328.34   " style="fill:#FBB14F;"/><polygon points="283.18,328.34 291.139,332.936 353.479,296.943 353.479,336.514 361.66,331.789     361.66,283.029   " style="fill:#E29A44;"/><polygon points="325.41,352.721 325.41,394.57 283.18,418.949 283.18,328.34   " style="fill:#FFD55E;"/><polygon points="283.18,328.34 283.18,336.256 319.493,357.221 319.493,397.986 325.41,394.57     325.41,352.721   " style="fill:#E5B84A;"/><polygon points="85.931,255.85 110.32,301.76 56.65,301.76   " style="fill:#F78F4B;"/><polygon points="90.22,263.924 85.931,255.85 56.65,301.76 66.089,301.76   " style="fill:#E0783F;"/><polygon points="193.271,301.76 155.08,428.01 110.32,301.76   " style="fill:#F78F4B;"/><polygon points="110.32,301.76 112.861,308.928 182.771,308.928 150.584,415.328 155.08,428.01     193.271,301.76   " style="fill:#E0783F;"/><polygon points="149.36,255.85 193.271,301.76 110.32,301.76   " style="fill:#FFC230;"/><polygon points="154.36,262.225 192.173,301.76 193.271,301.76 149.36,255.85 110.32,301.76     120.741,301.76   " style="fill:#EFAC26;"/><polygon points="217.66,255.85 193.271,301.76 149.36,255.85   " style="fill:#EDD696;"/><polygon points="164.121,262.475 214.141,262.475 217.66,255.85 149.36,255.85 193.271,301.76     196.279,296.098   " style="fill:#D6BE80;"/><polygon points="217.66,255.85 246.94,301.76 193.271,301.76   " style="fill:#F78F4B;"/><polygon points="222.235,263.023 217.66,255.85 193.271,301.76 201.657,301.76   " style="fill:#E0783F;"/><polygon points="246.94,301.76 182.141,390.82 155.08,428.01 193.271,301.76   " style="fill:#FFD55E;"/><polygon points="193.271,301.76 191.103,308.928 232.606,308.928 167.807,397.986 161.568,406.561     155.08,428.01 182.141,390.82 246.94,301.76   " style="fill:#E5B84A;"/><polygon points="149.36,255.85 110.32,301.76 85.931,255.85   " style="fill:#EDD696;"/><polygon points="96.651,262.35 143.833,262.35 149.36,255.85 85.931,255.85 110.32,301.76 114.793,296.5       " style="fill:#D6BE80;"/><polygon points="110.32,301.76 155.08,428.01 126.181,390.949 56.65,301.76   " style="fill:#FFD55E;"/><polygon points="139.431,397.824 69.9,308.635 112.758,308.635 110.32,301.76 56.65,301.76     126.181,390.949 155.08,428.01 148.504,409.459   " style="fill:#E5B84A;"/><path d="M231.03,409.891c10.011,0,18.13,8.109,18.13,18.119s-8.119,18.121-18.13,18.121    c-10,0-18.12-8.111-18.12-18.121S221.03,409.891,231.03,409.891z" style="fill:#FFC230;"/><path d="M216.956,439.344c0-10.01,8.12-18.119,18.12-18.119c5.686,0,10.756,2.619,14.08,6.713    c-0.039-9.975-8.14-18.047-18.126-18.047c-10,0-18.12,8.109-18.12,18.119c0,4.326,1.521,8.291,4.05,11.406    C216.96,439.391,216.956,439.367,216.956,439.344z" style="fill:#EFAC26;"/><path d="M123.03,166.544c10.011,0,18.13,8.109,18.13,18.119c0,10.011-8.119,18.121-18.13,18.121    c-10,0-18.12-8.11-18.12-18.121C104.91,174.654,113.03,166.544,123.03,166.544z" style="fill:#FFD55E;"/><path d="M108.956,195.998c0-10.01,8.12-18.119,18.12-18.119c5.686,0,10.756,2.619,14.08,6.714    c-0.039-9.976-8.14-18.048-18.126-18.048c-10,0-18.12,8.109-18.12,18.119c0,4.326,1.521,8.292,4.05,11.407    C108.96,196.045,108.956,196.022,108.956,195.998z" style="fill:#E5B84A;"/></g></g><g id="Layer_1"/></svg>